<?xml version="1.0" encoding="utf-8"?>
<svg xmlns="http://www.w3.org/2000/svg" viewBox="0 0 24 24" fill="#000000"><path d="M 12 3 L 6 9 L 4 9 C 2.895 9 2 9.895 2 11 L 2 13 C 2 14.105 2.895 15 4 15 L 6 15 L 12 21 L 12 3 z M 21 5 A 1 1 0 0 0 20 6 A 1 1 0 0 0 21 7 A 1 1 0 0 0 22 6 A 1 1 0 0 0 21 5 z M 18 7 A 1 1 0 0 0 17 8 A 1 1 0 0 0 18 9 A 1 1 0 0 0 19 8 A 1 1 0 0 0 18 7 z M 10 7.828125 L 10 16.171875 L 7.4140625 13.585938 L 6.828125 13 L 6 13 L 4 13 L 4 11 L 6 11 L 6.828125 11 L 7.4140625 10.414062 L 10 7.828125 z M 15 9 A 1 1 0 0 0 14 10 A 1 1 0 0 0 15 11 A 1 1 0 0 0 16 10 A 1 1 0 0 0 15 9 z M 18 11 A 1 1 0 0 0 17 12 A 1 1 0 0 0 18 13 A 1 1 0 0 0 19 12 A 1 1 0 0 0 18 11 z M 21 11 A 1 1 0 0 0 20 12 A 1 1 0 0 0 21 13 A 1 1 0 0 0 22 12 A 1 1 0 0 0 21 11 z M 15 13 A 1 1 0 0 0 14 14 A 1 1 0 0 0 15 15 A 1 1 0 0 0 16 14 A 1 1 0 0 0 15 13 z M 18 15 A 1 1 0 0 0 17 16 A 1 1 0 0 0 18 17 A 1 1 0 0 0 19 16 A 1 1 0 0 0 18 15 z M 21 17 A 1 1 0 0 0 20 18 A 1 1 0 0 0 21 19 A 1 1 0 0 0 22 18 A 1 1 0 0 0 21 17 z" fill="#000000"/></svg>
