<?xml version="1.0" encoding="utf-8"?>
<svg xmlns="http://www.w3.org/2000/svg" viewBox="0 0 24 24" fill="#000000"><path style="line-height:normal;text-indent:0;text-align:start;text-decoration-line:none;text-decoration-style:solid;text-decoration-color:#000;text-transform:none;block-progression:tb;isolation:auto;mix-blend-mode:normal" d="M 11 2 C 9.9069372 2 9 2.9069372 9 4 L 9 9 L 6 9 L 6 11 L 9 11 L 9 13.185547 C 7.8430015 14.097167 7 15.41228 7 17 C 7 19.749516 9.2504839 22 12 22 C 14.749516 22 17 19.749516 17 17 C 17 15.41228 16.156999 14.097167 15 13.185547 L 15 8 L 18 8 L 18 6 L 15 6 L 15 4 C 15 2.9069372 14.093063 2 13 2 L 11 2 z M 11 4 L 13 4 L 13 6.5 L 11 8 L 11 4 z M 13 9 L 13 14.130859 L 13.498047 14.419922 C 14.39835 14.943776 15 15.888155 15 17 C 15 18.668484 13.668484 20 12 20 C 10.331516 20 9 18.668484 9 17 C 9 15.888155 9.6016501 14.943776 10.501953 14.419922 L 11 14.130859 L 11 10.5 L 13 9 z" font-weight="400" font-family="sans-serif" white-space="normal" overflow="visible" fill="#000000"/></svg>
